<svg id="Layer_1" data-name="Layer 1" xmlns="http://www.w3.org/2000/svg" viewBox="0 0 1266.46 562.42"><defs><style>.cls-1{fill:#fff;}</style></defs><path class="cls-1" d="M635.81,269H542.35c-.62,2.18-.78,72.78-.14,76.67H546q106.78,0,213.57-.07c3,0,4.92.83,6.52,3.42,2.68,4.32,5.73,8.4,8.67,12.63-2.23.68-245.43.9-249.51.28-.59-2.17-.85-275-.27-280.51,2.09-.65,160.05-.83,163.73-.15V97.45l-12.2,0H542V252c9.2.08,18.36,0,27.51,0h83.16v64.27H635.81Z" transform="translate(-51.61 -80.88)"/><path class="cls-1" d="M737.83,267.05c-18.73,2.47-37.51,1-56.48,1.49V252.18c1-.06,2.09-.16,3.14-.17,10.1,0,20.19.07,30.29,0a147.84,147.84,0,0,0,32.14-3.4,92.15,92.15,0,0,0,25.13-9.52c16-9.13,26.5-22.59,31.35-40.3a91.92,91.92,0,0,0,.55-47.15c-5.12-20.5-17.66-35-36.71-44a102.87,102.87,0,0,0-33.12-8.93c-6-.65-12.16-.79-18.24-1.17l-2.47-.17c-.09-5.41,0-10.74,0-16.12,3.88,0,7.46-.14,11,0a144.47,144.47,0,0,1,40,7.17c12.25,4.18,23.41,10.24,33,19.1a77.11,77.11,0,0,1,22.74,39.4,113.24,113.24,0,0,1-1.26,58.67c-6.75,23.3-21.37,40.15-43.17,50.63-5.73,2.76-11.91,4.59-17.89,6.83-1.09.41-2.22.71-3.65,1.17,23.43,32.65,46.65,65,70.11,97.74-1.15.13-1.9.28-2.65.28-4.9,0-9.8-.1-14.69.07a4.59,4.59,0,0,1-4.36-2.39Q771.3,315,740,270.09C739.32,269.11,738.62,268.15,737.83,267.05Z" transform="translate(-51.61 -80.88)"/><path class="cls-1" d="M105.57,520v7h-54v-76.3h52.32v7H59.68v27.14H99.14v6.87H59.68V520Z" transform="translate(-51.61 -80.88)"/><path class="cls-1" d="M231.68,450.64v76.3h-7.74v-61l-30,51.34h-3.82l-30-51v60.71h-7.74v-76.3h6.65l33.13,56.57L225,450.64Z" transform="translate(-51.61 -80.88)"/><path class="cls-1" d="M335.88,457.62q8.28,7,8.29,19.18t-8.29,19.13q-8.28,6.93-22.89,6.92H292.5v24.09h-8.06v-76.3H313Q327.6,450.64,335.88,457.62Zm-5.77,33.19q6-5,6-14,0-9.26-6-14.22t-17.33-5H292.5v38.15h20.28Q324.11,495.77,330.11,490.81Z" transform="translate(-51.61 -80.88)"/><path class="cls-1" d="M389.51,450.64h8.07v76.3h-8.07Z" transform="translate(-51.61 -80.88)"/><path class="cls-1" d="M502.43,526.94,485,502.42a54.64,54.64,0,0,1-6.1.33H458.4v24.19h-8.07v-76.3h28.56q14.61,0,22.89,7t8.28,19.18a23.64,23.64,0,0,1-17.44,24l18.64,26.16ZM496,490.86q6-5,6-14.06,0-9.26-6-14.22t-17.33-5H458.4v38.26h20.27Q490,495.88,496,490.86Z" transform="translate(-51.61 -80.88)"/><path class="cls-1" d="M611,520v7H557v-76.3h52.32v7H565.11v27.14h39.45v6.87H565.11V520Z" transform="translate(-51.61 -80.88)"/><path class="cls-1" d="M766.43,526.94,749,502.42a54.82,54.82,0,0,1-6.11.33H722.39v24.19h-8.06v-76.3h28.55q14.61,0,22.89,7t8.29,19.18a23.67,23.67,0,0,1-17.44,24l18.64,26.16ZM760,490.86q6-5,6-14.06,0-9.26-6-14.22t-17.33-5H722.39v38.26h20.28Q754,495.88,760,490.86Z" transform="translate(-51.61 -80.88)"/><path class="cls-1" d="M875,520v7H821v-76.3h52.32v7H829.1v27.14h39.46v6.87H829.1V520Z" transform="translate(-51.61 -80.88)"/><path class="cls-1" d="M985.62,450.64v76.3H979L929.93,465v61.91h-8.07v-76.3h6.65l49.16,61.92V450.64Z" transform="translate(-51.61 -80.88)"/><path class="cls-1" d="M1038.38,450.64h31.07a45.45,45.45,0,0,1,21.36,4.85A35.5,35.5,0,0,1,1105.2,469a40.79,40.79,0,0,1,0,39.57,35.48,35.48,0,0,1-14.39,13.51,45.33,45.33,0,0,1-21.36,4.85h-31.07ZM1069,520a37.06,37.06,0,0,0,17.55-4,28.88,28.88,0,0,0,11.66-11,33.71,33.71,0,0,0,0-32.37,28.88,28.88,0,0,0-11.66-11,37.06,37.06,0,0,0-17.55-4h-22.56V520Z" transform="translate(-51.61 -80.88)"/><path class="cls-1" d="M1210.27,520v7h-54v-76.3h52.32v7h-44.26v27.14h39.46v6.87h-39.46V520Z" transform="translate(-51.61 -80.88)"/><path class="cls-1" d="M1309.24,526.94l-17.44-24.52a54.64,54.64,0,0,1-6.1.33h-20.49v24.19h-8.07v-76.3h28.56q14.61,0,22.89,7t8.28,19.18a23.64,23.64,0,0,1-17.44,24l18.64,26.16Zm-6.43-36.08q6-5,6-14.06,0-9.26-6-14.22t-17.33-5h-20.27v38.26h20.27Q1296.82,495.88,1302.81,490.86Z" transform="translate(-51.61 -80.88)"/><path class="cls-1" d="M378.87,622.51a10.9,10.9,0,0,1,3.45,8.37,11.39,11.39,0,0,1-6.9,10.8,19.38,19.38,0,0,1-8.34,1.62,25,25,0,0,1-8.61-1.47A17.48,17.48,0,0,1,352,637.9l2.1-3.42a15.43,15.43,0,0,0,5.58,3.51,20.39,20.39,0,0,0,7.44,1.35q5.16,0,8-2.25a7.51,7.51,0,0,0,2.82-6.21,7.36,7.36,0,0,0-2.82-6.12q-2.82-2.22-8.52-2.22h-3v-3.18l11.64-14.58H353.7v-3.84h27V604l-11.88,14.94Q375.42,619.3,378.87,622.51Z" transform="translate(-51.61 -80.88)"/><path class="cls-1" d="M398.1,600.94h17.1A25,25,0,0,1,427,603.61a19.48,19.48,0,0,1,7.92,7.44,22.44,22.44,0,0,1,0,21.78,19.48,19.48,0,0,1-7.92,7.44,25,25,0,0,1-11.76,2.67H398.1ZM415,639.1a20.37,20.37,0,0,0,9.66-2.19,15.91,15.91,0,0,0,6.42-6.06A18.55,18.55,0,0,0,431,613a15.91,15.91,0,0,0-6.42-6.06,20.37,20.37,0,0,0-9.66-2.19H402.54V639.1Z" transform="translate(-51.61 -80.88)"/><path class="cls-1" d="M510.3,600.94l-18.6,42h-4.38l-18.6-42h4.8l16.08,36.48,16.2-36.48Z" transform="translate(-51.61 -80.88)"/><path class="cls-1" d="M522.36,600.94h4.44v42h-4.44Z" transform="translate(-51.61 -80.88)"/><path class="cls-1" d="M549.09,641.8a16.48,16.48,0,0,1-6.63-4l1.74-3.42a16.66,16.66,0,0,0,6.06,3.69,22.14,22.14,0,0,0,7.8,1.41c3.75,0,6.58-.69,8.46-2.07a6.38,6.38,0,0,0,2.82-5.37,5.37,5.37,0,0,0-1.53-4,10.33,10.33,0,0,0-3.75-2.31,60.65,60.65,0,0,0-6.18-1.77,64.93,64.93,0,0,1-7.56-2.31,12.41,12.41,0,0,1-4.83-3.39,9,9,0,0,1-2-6.18,10.48,10.48,0,0,1,1.68-5.79,11.45,11.45,0,0,1,5.16-4.17,21.12,21.12,0,0,1,8.64-1.56,25.44,25.44,0,0,1,7,1,20.26,20.26,0,0,1,6,2.73l-1.5,3.54a20.64,20.64,0,0,0-5.64-2.61,21.1,21.1,0,0,0-5.88-.87c-3.69,0-6.45.71-8.31,2.13a6.61,6.61,0,0,0-2.79,5.49,5.47,5.47,0,0,0,1.53,4,10,10,0,0,0,3.84,2.34c1.54.54,3.6,1.13,6.21,1.77a62.48,62.48,0,0,1,7.47,2.25,12.26,12.26,0,0,1,4.83,3.36,8.89,8.89,0,0,1,2,6.09,10.34,10.34,0,0,1-1.71,5.79,11.49,11.49,0,0,1-5.25,4.14,21.93,21.93,0,0,1-8.7,1.53A27,27,0,0,1,549.09,641.8Z" transform="translate(-51.61 -80.88)"/><path class="cls-1" d="M593.58,638.62Q589,633.94,589,625V600.94h4.44v23.88c0,4.88,1.09,8.52,3.3,10.92s5.37,3.6,9.53,3.6,7.4-1.2,9.61-3.6,3.3-6,3.3-10.92V600.94h4.32V625q0,8.94-4.53,13.62t-12.7,4.68Q598.13,643.3,593.58,638.62Z" transform="translate(-51.61 -80.88)"/><path class="cls-1" d="M668.33,631.72h-23.4l-5,11.22h-4.63l19.2-42h4.38l19.2,42h-4.67Zm-1.62-3.6-10.08-22.56-10.08,22.56Z" transform="translate(-51.61 -80.88)"/><path class="cls-1" d="M691,600.94h4.44V639.1H719v3.84H691Z" transform="translate(-51.61 -80.88)"/><path class="cls-1" d="M732.35,600.94h4.44v42h-4.44Z" transform="translate(-51.61 -80.88)"/><path class="cls-1" d="M786.77,639.1v3.84H752.33v-3.06l27.84-35.1H752.75v-3.84h33.3V604l-27.78,35.1Z" transform="translate(-51.61 -80.88)"/><path class="cls-1" d="M827.87,631.72h-23.4l-5,11.22h-4.62l19.2-42h4.38l19.2,42h-4.68Zm-1.62-3.6-10.08-22.56-10.08,22.56Z" transform="translate(-51.61 -80.88)"/><path class="cls-1" d="M856.61,604.78H841.85v-3.84h34v3.84H861.05v38.16h-4.44Z" transform="translate(-51.61 -80.88)"/><path class="cls-1" d="M888.89,600.94h4.44v42h-4.44Z" transform="translate(-51.61 -80.88)"/><path class="cls-1" d="M920.06,640.51a20.38,20.38,0,0,1-7.92-7.65,22.35,22.35,0,0,1,0-21.84,20.38,20.38,0,0,1,7.92-7.65,24.31,24.31,0,0,1,22.56,0,20.43,20.43,0,0,1,7.89,7.65,22.26,22.26,0,0,1,0,21.9,20.43,20.43,0,0,1-7.89,7.65,24.31,24.31,0,0,1-22.56,0Zm20.31-3.42a16.28,16.28,0,0,0,6.3-6.24,18.55,18.55,0,0,0,0-17.82,16.28,16.28,0,0,0-6.3-6.24,19.19,19.19,0,0,0-18,0A16.44,16.44,0,0,0,916,613a18.34,18.34,0,0,0,0,17.82,16.44,16.44,0,0,0,6.36,6.24,19.19,19.19,0,0,0,18,0Z" transform="translate(-51.61 -80.88)"/><path class="cls-1" d="M1004.45,600.94v42h-3.66l-27-34.08v34.08h-4.44v-42H973L1000.07,635V600.94Z" transform="translate(-51.61 -80.88)"/></svg>